<mxfile host="app.diagrams.net" modified="2024-05-09T03:01:18.497Z" agent="Mozilla/5.0 (Macintosh; Intel Mac OS X 10_15_7) AppleWebKit/537.36 (KHTML, like Gecko) Chrome/123.0.0.0 Safari/537.36" version="24.3.1" etag="uY3dSadfv3gS7QQncTrq" type="github">
  <diagram name="第 1 页" id="sARjd8U7tsQjKgTt8vm3">
    <mxGraphModel>
      <root>
        <mxCell id="0" />
        <mxCell id="1" parent="0" />
      </root>
    </mxGraphModel>
  </diagram>
</mxfile>
